# xmcd CD database file
#
# Track frame offsets:
#	150
#	16390
#	36207
#	60546
#	83887
#	99831
#	131143
#
# Disc length: 1916 seconds
#
# Revision: 0
# Processed by: cddbd v1.5.1PL0 Copyright (c) Steve Scherf et al.
# Submitted via: CDex 1.51
#
DISCID=51077a07
DTITLE=P.G.Factory - CORE RESTRUCTION
DYEAR=2002
DGENRE=Trance
TTITLE0=GLOBAL FIELD -rebirth-
TTITLE1=Beat of Dawning (CR style)
TTITLE2=DEEPBLUE (Long Version)
TTITLE3=Ambivallent Sky (CR style)
TTITLE4=CORE RESTRUCTION
TTITLE5=Farewell Song -TRANCE-
TTITLE6=DATA TRACK
EXTD=YEAR: 2002
EXTT0=
EXTT1=
EXTT2=
EXTT3=
EXTT4=
EXTT5=
EXTT6=
PLAYORDER=
